<?xml version="1.0" encoding="UTF-8"?>
<!DOCTYPE svg  PUBLIC '-//W3C//DTD SVG 1.1//EN'  'http://www.w3.org/Graphics/SVG/1.1/DTD/svg11.dtd'>
<svg enable-background="new -15.0417 -10.8974 1950.0834 1412.7948" version="1.1" viewBox="-15.0417 -10.8974 1950.0834 1412.7948" xml:space="preserve" xmlns="http://www.w3.org/2000/svg">
<g stroke-width=".0938">
	<path d="m1850.6 42.64c5.47-4.69 12.34-8.02 19.64-8.24 8.63-0.46 17.83 3.42 22.44 10.94 3 4.52 3.3401 10.33 2.26 15.52-2.24 8.1-8.9199 13.95-15.75 18.33-60.86 40.51-117.83 86.82-170.13 137.89-26.03 24.96-50.78 51.21-75.93 77.05-27.83 28.82-55.88 57.57-86.66 83.3-25.16 21.13-52.18 40.11-80.9 56.1-28.63 15.82-58.69 29.18-89.78 39.38 0.08-2.25 0.0299-4.51-0.1801-6.74 16.98-6.73 34.25-12.83 50.78-20.7 35.02-15.89 68.06-36.08 98.45-59.65 28.42-21.95 54.42-46.82 79.74-72.24 24.8-25.52 49.41-51.24 74.32-76.66 24.82-24.87 50.17-49.22 76.69-72.26 36.96-32.21 76.05-61.97 116.73-89.33 5.42-3.71 11.62-7.19 14.66-13.31 2.24-4.18 2.21-9.54-0.59-13.45-4.3301-6.43-13.09-8.45-20.31-6.59-6.72 1.78-11.82 6.81-17.08 11.06-56.54 46.38-118.43 86.08-183.46 119.45-36.17 18.78-73.26 35.7-110.25 52.78-32.33 14.85-64.59 29.97-95.65 47.34-29.64 16.71-58.09 35.8-83.36 58.66-20.86 18.57-39.38 39.71-55.52 62.48-2.85 4.2-6.3 8.11-7.99 12.98-2.7101-0.54-5.4401-0.9-8.17-1.21 17.93-28.78 40.08-54.94 65.08-77.83 28.2-25.8 60.33-46.97 93.85-65.2 33.87-18.6 69.14-34.46 104.19-50.68 36.68-16.93 73.36-33.95 108.95-53.1 61.7-32.67 120.24-71.42 173.93-116.07z" fill="#BD9B74" stroke="#BD9B74"/>
	<path d="m1866.1 41.98c7.2201-1.86 15.98 0.16 20.31 6.59 2.7999 3.91 2.83 9.27 0.59 13.45-3.04 6.12-9.24 9.6-14.66 13.31-40.68 27.36-79.77 57.12-116.73 89.33-26.52 23.04-51.87 47.39-76.69 72.26-24.91 25.42-49.52 51.14-74.32 76.66-25.32 25.42-51.32 50.29-79.74 72.24-30.39 23.57-63.43 43.76-98.45 59.65-16.53 7.87-33.8 13.97-50.78 20.7-5.8-17.73-17.14-33.61-32.45-44.33-9.3201-6.42-19.39-12.19-30.39-15.11 1.6899-4.87 5.14-8.78 7.99-12.98 16.14-22.77 34.66-43.91 55.52-62.48 25.27-22.86 53.72-41.95 83.36-58.66 31.06-17.37 63.32-32.49 95.65-47.34 36.99-17.08 74.08-34 110.25-52.78 65.03-33.37 126.92-73.07 183.46-119.45 5.2599-4.25 10.36-9.28 17.08-11.06m-4.5 3.59c-3.63 2.69-6.58 6.15-9.9399 9.13-48.31 44.76-105.19 78.9-162.84 110.13-66.66 36.02-135.58 67.66-202.14 103.87-34.1 18.68-67.69 38.61-98.41 62.55-25.57 20.21-49.79 43.48-65.18 72.57 10.22 3.03 18.73 9.56 27.62 15.12 34.12-43.14 75.77-79.74 119.85-112.39 63.45-46.92 132.14-86.01 200.14-125.8 66.75-38.95 133.8-78.21 193.92-127.08 2.8201-2.6 6.9501-5.16 6.49-9.56-3.12-1.81-6.85-0.53-9.51 1.46m3.64 18.67c-18.46 12.67-36.3 26.22-53.79 40.19-56.96 45.69-110.1 95.83-164.43 144.52-57.32 51.08-115.97 101.46-181.96 141.14-31.39 18.98-64.66 34.8-99.26 46.97 1.2899 2.35 2.84 4.55 4.51 6.65 2.4099 2.86 2.9099 6.68 3.96 10.14 10.22-0.75 20.1-3.85 29.86-6.81 43.87-14.52 82.46-41.07 118.32-69.61 31.33-25.12 60.6-52.65 89.69-80.28 11.12-10.9 22.14-21.9 33.27-32.79 15.42-14.56 30.27-29.71 45.37-44.58 30.63-29.78 61.48-59.35 94.15-86.9 28.47-24.06 58.28-46.75 90.65-65.34 4.1001-2.57 9.7001-5.83 8.4-11.56-7.3-0.9-12.93 4.8-18.74 8.26z" fill="#8F5444" stroke="#8F5444"/>
	<path d="m1861.6 45.57c2.66-1.99 6.39-3.27 9.51-1.46 0.4601 4.4-3.6699 6.96-6.49 9.56-60.12 48.87-127.17 88.13-193.92 127.08-68 39.79-136.69 78.88-200.14 125.8-44.08 32.65-85.73 69.25-119.85 112.39-8.8899-5.56-17.4-12.09-27.62-15.12 15.39-29.09 39.61-52.36 65.18-72.57 30.72-23.94 64.31-43.87 98.41-62.55 66.56-36.21 135.48-67.85 202.14-103.87 57.65-31.23 114.53-65.37 162.84-110.13 3.36-2.98 6.31-6.44 9.94-9.13z" fill="#BD9C73" stroke="#BD9C73"/>
	<path d="m1865.2 64.24c5.8101-3.46 11.44-9.16 18.74-8.26 1.3 5.73-4.2999 8.99-8.4 11.56-32.37 18.59-62.18 41.28-90.65 65.34-32.67 27.55-63.52 57.12-94.15 86.9-15.1 14.87-29.95 30.02-45.37 44.58-11.13 10.89-22.15 21.89-33.27 32.79-29.09 27.63-58.36 55.16-89.69 80.28-35.86 28.54-74.45 55.09-118.32 69.61-9.76 2.96-19.64 6.06-29.86 6.81-1.05-3.46-1.55-7.28-3.96-10.14-1.67-2.1-3.2201-4.3-4.51-6.65 34.6-12.17 67.87-27.99 99.26-46.97 65.99-39.68 124.64-90.06 181.96-141.14 54.33-48.69 107.47-98.83 164.43-144.52 17.49-13.97 35.33-27.52 53.79-40.19z" fill="#563A2F" stroke="#563A2F"/>
	<path d="m1295.3 408.27c3.02-1.13 6.11-2.32 9.3199-2.75 2.73 0.31 5.46 0.67 8.17 1.21 11 2.92 21.07 8.69 30.39 15.11 15.31 10.72 26.65 26.6 32.45 44.33 0.21 2.23 0.26 4.49 0.1801 6.74-0.3601 6.35-3.9401 12.18-9.01 15.9-5.78 4.73-13.47 6.41-20.79 6.33-3.27 0.02-6.8-0.7-9.74 1.11-27.73 14.54-55.28 29.4-82.98 43.99-5.86 2.79-11.14 6.79-17.36 8.77-0.1801-2.29-0.41-4.57-0.66-6.84 8.52-5.37 17.75-9.47 26.55-14.35 19.03-10.39 38.34-20.26 57.43-30.56 6.1801-2.91 11.92-6.77 18.21-9.43 5.04-0.43 10.17 1.05 15.19-0.24 6.9399-1.33 14.01-5.79 15.9-12.97 1.58-6.03-1.5901-11.83-3.99-17.16-9.8601-21.1-29.91-35.79-51.39-43.55-7.4301-2.37-16.64-0.72-21.45 5.83-4.1699 4.75-5.12 11.23-4.83 17.34 0.61 4.2-3.75 6.11-6.3199 8.51-12.52 10.82-25.34 21.29-37.85 32.13-11.35 9.26-22.17 19.16-33.69 28.19-2.36-1.18-4.72-2.32-7.05-3.52 5.4301-3.59 10.07-8.21 15.14-12.27 17.3-14.7 34.74-29.23 51.94-44.05 3.3999-3.24 7.75-5.57 10.5-9.42 0.5399-3.33 0.1799-6.78 1.0699-10.06 2.22-7.67 7.05-15.14 14.67-18.32z" fill="#DEDEDC" stroke="#DEDEDC"/>
	<path d="m1291.7 419.74c4.8101-6.55 14.02-8.2 21.45-5.83 21.48 7.76 41.53 22.45 51.39 43.55 2.3999 5.33 5.5699 11.13 3.99 17.16-1.89 7.18-8.9601 11.64-15.9 12.97-5.02 1.29-10.15-0.19-15.19 0.24-6.2899 2.66-12.03 6.52-18.21 9.43-19.09 10.3-38.4 20.17-57.43 30.56-8.8 4.88-18.03 8.98-26.55 14.35 0.25 2.27 0.48 4.55 0.66 6.84 0.5599 16.11-6.15 31.64-15.51 44.45-9.13 12.45-21.04 22.61-33.81 31.16-14.09 9.1-29.32 16.44-45.24 21.71-21.1 6.9-44.04 9.08-65.81 4.22-2.6801-0.53-5.3101-1.24-7.79-2.36 3.08-1.41 6.14-2.92 8.98-4.79 17.81 4.73 36.76 3.11 54.46-1.4 16.18-4.33 31.64-11.2 46-19.79 16.43-9.96 31.62-22.76 41.81-39.23 8.59-13.76 13.09-31.35 7.1-46.99-6.1799-16.76-22.65-27.27-39.22-31.85-10.58-2.97-21.66-1.94-32.31 0-2.0199-2.84-5.0699-4.77-8.6499-4.58 18.13-6.08 38.85-6.19 56.04 2.83 2.3301 1.2 4.6901 2.34 7.05 3.52 11.52-9.03 22.34-18.93 33.69-28.19 12.51-10.84 25.33-21.31 37.85-32.13 2.5699-2.4 6.9299-4.31 6.3199-8.51-0.29-6.11 0.66-12.59 4.83-17.34m0.69 4.59c-1.48 4.53 0.2 9.23 0.64 13.79-2.77-0.99-4.75 3.47-1.88 4.58-1.51-0.22-2.4401 1.28-3.54 2-24.74 21.48-50 42.39-74.57 64.06 1.84 1.27 3.3899 3.26 5.6499 3.8 25.42-20.82 50.6-41.97 76.02-62.81 1.3201-1.05 2.52-2.25 3.49-3.65 11.11 6.07 21.03 14.29 29.11 24.05-5.86 4.37-12.35 7.78-18.51 11.68-25.88 15.83-51.96 31.36-77.76 47.33 0.75 2.63 1.7999 5.16 3.0399 7.61 27.74-14.48 55.54-28.84 83.28-43.33 6.55-3.22 12.82-7.03 19.6-9.77 0.24 0.3 0.73 0.91 0.97 1.21 1.0801-0.41 2.1901-0.78 3.3301-1.12 4.24 1.85 9.1899 2.91 13.69 1.29 4.66-1.47 8.7001-5.03 10.46-9.62 1.46-4.98-0.92-9.97-2.76-14.51-2.2001 3.69-3.0701 8.29-6.74 10.98-5.1901 5.06-12.9 3.2-19.31 2.52-9.5699-13.01-21.51-24.49-35.79-32.2-0.48-5.91-2.2899-12.63 1.4501-17.88 2.97-3.99 8.47-3.03 12.81-3.46-2.83-2.43-6.26-4.47-10.08-4.54-5.17 0.19-10.58 3.03-12.6 7.99z" fill="#C1C1C1" stroke="#C1C1C1"/>
	<path d="m1292.4 424.33c2.02-4.96 7.4299-7.8 12.6-7.99 3.8199 0.07 7.25 2.11 10.08 4.54-4.34 0.43-9.84-0.53-12.81 3.46-3.74 5.25-1.9301 11.97-1.4501 17.88-2.63-1.32-5.1699-2.77-7.7799-4.1-0.4401-4.56-2.1201-9.26-0.6401-13.79z" fill="#FEFEFE" stroke="#FEFEFE"/>
	<path d="m1291.2 442.7c-2.87-1.11-0.89-5.57 1.88-4.58 2.61 1.33 5.1499 2.78 7.7799 4.1 14.28 7.71 26.22 19.19 35.79 32.2 1.96 2.89 3.4501 6.07 4.66 9.34-1.14 0.34-2.25 0.71-3.3301 1.12-0.24-0.3-0.73-0.91-0.97-1.21-3.28-4.47-6.02-9.32-9.65-13.52-8.08-9.76-18-17.98-29.11-24.05-2.3098-1.24-4.6798-2.33-7.0498-3.4z" fill="#5E5B5B" stroke="#5E5B5B"/>
	<path d="m1287.6 444.7c1.1-0.72 2.03-2.22 3.54-2 2.37 1.07 4.74 2.16 7.0499 3.4-0.97 1.4-2.1699 2.6-3.49 3.65-25.42 20.84-50.6 41.99-76.02 62.81-2.26-0.54-3.8099-2.53-5.6499-3.8 24.57-21.67 49.83-42.58 74.57-64.06z" fill="#FEFEFE" stroke="#FEFEFE"/>
	<path d="m1355.9 471.9c3.6699-2.69 4.5399-7.29 6.74-10.98 1.84 4.54 4.22 9.53 2.76 14.51-1.76 4.59-5.8 8.15-10.46 9.62-4.5 1.62-9.45 0.56-13.69-1.29-1.21-3.27-2.7001-6.45-4.66-9.34 6.41 0.68 14.12 2.54 19.31-2.52z" fill="#969593" stroke="#969593"/>
	<path d="m1327.3 470.15c3.63 4.2 6.37 9.05 9.65 13.52-6.78 2.74-13.05 6.55-19.6 9.77-27.74 14.49-55.54 28.85-83.28 43.33-1.24-2.45-2.2899-4.98-3.0399-7.61 25.8-15.97 51.88-31.5 77.76-47.33 6.16-3.9 12.65-7.31 18.51-11.68z" fill="#969593" stroke="#969593"/>
	<path d="m1055.9 537.91c32.03-7.68 58.89-28.27 90.01-38.35 3.58-0.19 6.63 1.74 8.6499 4.58 0.0701 1.2 0.2301 2.4 0.49 3.59 1.4701 1.49 3.6001 1.99 5.52 2.69 5.49 1.82 10.74 4.24 16.12 6.38 4.6001 3.23 8.12 8.37 7.4401 14.24 0.2 5.41-4.5601 8.96-8.79 11.32-7 3.69-14.49 6.33-21.95 8.89-5.6801 1.98-11.78 0.36-17.52 1.81 3.28 9.33 13.75 13.37 17.86 22.2 2.5 5.3 0.0601 11.76-4.11 15.46-3.85 2.66-8.76 2.84-13.27 3.1201-5.6899-1.55-11.58-0.69-17.37-0.75-5.78 0.1299-11.66-0.79-17.33 0.7-2.3401 0.01-4.6801-0.0099-7.01 0.04 4.0299 3.42 9.1699 6.35 10.81 11.72 1.67 5.57-1.83 11.51-6.64 14.27-6.14 3.52-13.17 4.89-19.81 7.15 0.99 3.14 2.15 6.45 1.53 9.8-0.4801 2.57-2.16 4.69-3.8101 6.63-2.84 1.87-5.9 3.38-8.98 4.79-5.5701-1.02-10.64-3.67-15.78-5.91 1.74 6.6899 4.17 13.18 5.72 19.93 6.4 25.77 7.6101 53.24 0.49 79-7.86 29.51-25.96 55.27-47.55 76.44-29.27 28.54-64.12 50.5-99.55 70.51-48.62 27.63-99.54 51.19-146.89 81.06-15.48 9.88-30.7 20.32-44.44 32.56-15.27 13.28-29.03 28.82-37.88 47.17-8.49 16.88-11.29 36.33-9.07 55.03 2.11 18.87 9.08 36.83 17.67 53.63 17.39 33.01 41.5 61.88 67.01 88.9 46.97 49.09 99.89 92.01 153.78 133.22 2.13 1.62 3.85 5.78 1.04 7.5701-10.7 3.7999-22.24 1.95-33.34 2.33-45.59-2.33-90.78-9.49-135.59-18-91.22-17.21-181.61-39.15-270.24-66.83-74.75-23.56-148.39-51.25-218.45-86.55-37.33-19.18-73.71-40.44-107.41-65.53-33.63-25.25-65.08-54.22-88.86-89.13-16.83-24.71-29.68-52.47-35.16-81.98-5.09-26.11-4.56-53.27 1.07-79.25 3.49-16.72 10.53-32.67 20.48-46.55 18.62-25.91 46.64-43.31 75.77-55.21 40.65-16.36 84.1-24.28 127.38-29.86 40.2-5.09 80.65-7.99 121.1-9.98 94.53-5.02 189.34-6.17 283.54-16.25 60.09-6.62 120.42-16.44 177.24-37.76 27.19-10.32 53.51-23.5 76.7-41.19 18.04-13.82 34.28-30.24 46.68-49.35 10.94-16.06 18.61-34.12 24.33-52.63 0.56-2.1 1.6-4.43 0.4-6.51-2.98-6.58-5.82-13.26-8.03-20.14-1.83-5.59 5.26-10.31 10.13-8.09 2.07 1.59 3.7 3.68 5.73 5.34 2.96-1.74 6.5-2.36 9.6299-0.65 18.99 8.0799 40.55 9.4799 60.51 4.3799m20.72 0.77c-19.04 7.63-40.05 11.62-60.46 8.1-4.79-0.6801-9.37-2.3701-14.18-2.8101-3.07-2.05-6.68-3.03-10.19-3.98 2.69 5.04 7.81 7.95 11.42 12.22-10.49-1.66-18.96-8.7401-26.12-16.13 9.05 25.63 22.05 50.21 40.17 70.61 12.84 14.4 28.72 26.4 46.88 33.19 4.4399 2.34 11.1-2.42 9.3199-7.48-1.1799-3.2-4.1799-5.2401-5.71-8.25 8.5699-5.17 19.17-5.5 27.85-10.46 2.6901-1.61 3.76-5.53 1.74-8.06-4.4-5.57-11.49-7.76-16.86-12.13-1.41-1.09-2.72-3.4-0.85-4.73 3.96-1.26 8.1799-1.29 12.29-1.41 14.01-0.07 28.02 0.08 42.03-0.04 3.36-0.15 6.85-0.09 10.08-1.21 3.9299-1.93 3.88-7.55 1.4299-10.66-4.54-6.06-11.64-10.03-14.98-17.02-0.91-1.7-1.45-4.25 0.65-5.32 7.1699-4.53 15.55-6.6 23.43-9.6 6.8201-2.63 14.01-4.68 20.18-8.72 2.95-1.54 2.8199-5.49 1.4399-8.06-2.3899-3.79-6.75-5.65-10.81-7.04-3.04-1.19-6.28-0.29-9.3201 0.36-21.94 4.86-42.43 14.34-63.05 23-15.94 6.36-32.4 14.05-50.01 12.59-12.23-1.01-24.32-3.46-36.12-6.82l-0.12-1.16c4.94 1.52 10.11 2.08 15.25 2.4901 11.42 0.5699 22.95 0.37 34.21-1.85 25.59-4.48 49.37-15.44 72.82-26.19 6.83-3 13.56-6.33 20.69-8.57-0.65-2.42-1.72-4.69-2.8099-6.92-24.51 8.19-46.22 22.8-70.29 32.06m-93.36 30.4c-5.19 15.61-11.49 30.96-20.25 44.93-11.48 19.14-26.42 36.15-43.55 50.44-19.82 16.53-42.27 29.72-65.79 40.23-27.86 12.36-57.09 21.51-86.78 28.31-34.9 8.3-70.44 13.63-106.06 17.68-47.01 5.52-94.3 7.94-141.53 10.71-28.37 0.82-56.71 2.61-85.08 3.16-10.72 1.1-21.51 0.66-32.24 1.7401-43.05 1.83-86.1 4.1899-128.97 8.6299-40.79 4.39-81.64 10.32-121.03 22.11-30.11 9.24-59.98 22.01-83.63 43.31-13.89 12.37-25.04 27.93-31.73 45.32-7.15 18.54-9.6 38.57-9.75 58.35-0.32 23.67 4.25 47.32 12.78 69.37 17.54 45.28 50.33 82.88 86.91 114.01 28.54 24.3 59.96 45.01 92.43 63.65 32.36 18.62 66.09 34.76 100.29 49.71 41.8 18.02 84.45 34.02 127.7 48.21 80.21 26.58 162.14 47.75 244.78 65.26 44.45 9.27 89.11 17.58 134.04 24.14 22.31 3.26 44.69 6.28 67.19 7.79 4.53 0.02 9.35 0.99 13.63-0.9301-17.23-13.74-34.95-26.86-51.92-40.94-30.07-24.41-59.22-50-86.85-77.15-25.35-25.52-49.68-52.36-69.48-82.5-11.45-17.54-21.45-36.24-27.59-56.33-5.97-19.48-7.91-40.57-3.12-60.52 4.01-17.62 13.03-33.81 24.45-47.68 22.59-27.32 52.37-47.37 82.44-65.56 30.86-18.28 62.79-34.63 94.49-51.39 35.31-18.99 70.77-38.12 103.04-62.06 25.39-18.93 49.24-41.06 65.12-68.77 11.49-20.1 18.3-43.09 18.18-66.31 0.64-20.79-3.76-41.4-10.4-61-1.0699-2.83-1.6-6.02-3.63-8.36-3.41-2.98-7.46-5.13-10.94-8.03-20.26-15.72-35.02-37.22-47.15-59.53z" fill="#75C5F0" stroke="#75C5F0"/>
	<path d="m1154.6 504.14c10.65-1.94 21.73-2.97 32.31 0 16.57 4.58 33.04 15.09 39.22 31.85 5.99 15.64 1.49 33.23-7.1 46.99-10.19 16.47-25.38 29.27-41.81 39.23-14.36 8.59-29.82 15.46-46 19.79-17.7 4.51-36.65 6.13-54.46 1.4 1.65-1.94 3.33-4.06 3.8101-6.63 0.62-3.35-0.54-6.66-1.53-9.8 6.64-2.2599 13.67-3.6299 19.81-7.15 4.8101-2.76 8.3101-8.7 6.64-14.27-1.64-5.37-6.78-8.3-10.81-11.72 2.33-0.05 4.6699-0.03 7.01-0.04 11.53 0.94 23.16 0.79 34.7 0.05 4.51-0.28 9.42-0.46 13.27-3.1201 4.17-3.7 6.61-10.16 4.11-15.46-4.11-8.83-14.58-12.87-17.86-22.2 5.74-1.45 11.84 0.17 17.52-1.81 7.46-2.56 14.95-5.2 21.95-8.89 4.23-2.36 8.99-5.91 8.79-11.32 0.6799-5.87-2.84-11.01-7.4401-14.24 9.03-1.19 18.12-0.29 27.18-0.53-5.22-5.49-12.7-8.29-20.15-8.78-7.8099-0.49-15.72 0.49-23.15 2.93-1.9199-0.7-4.0499-1.2-5.52-2.69-0.26-1.1899-0.4201-2.3899-0.4901-3.5899z" fill="#1F1A17" stroke="#1F1A17"/>
	<path d="m1076.6 538.68c24.07-9.26 45.78-23.87 70.29-32.06 1.09 2.23 2.1599 4.5 2.8099 6.92-7.13 2.2401-13.86 5.57-20.69 8.57-23.45 10.75-47.23 21.71-72.82 26.19-11.26 2.22-22.79 2.42-34.21 1.85-5.14-0.41-10.31-0.97-15.25-2.4901-1.58-1.2599-3.15-2.52-4.77-3.69 4.81 0.44 9.39 2.13 14.18 2.8101 20.41 3.52 41.42-0.47 60.46-8.1z" fill="#0491DA" stroke="#0491DA"/>
	<path d="m1160.6 510.42c7.4301-2.44 15.34-3.42 23.15-2.93 7.45 0.49 14.93 3.29 20.15 8.78-9.0601 0.24-18.15-0.66-27.18 0.53-5.3799-2.14-10.63-4.56-16.12-6.38z" fill="#C2C2C2" stroke="#C2C2C2"/>
	<path d="m1156.1 520.05c3.04-0.65 6.28-1.55 9.3201-0.36 4.0599 1.39 8.42 3.25 10.81 7.04 1.38 2.57 1.51 6.52-1.4399 8.06-6.17 4.04-13.36 6.09-20.18 8.72-7.88 3-16.26 5.07-23.43 9.6-2.1 1.07-1.5601 3.62-0.65 5.32 3.34 6.99 10.44 10.96 14.98 17.02 2.4501 3.11 2.5 8.73-1.4299 10.66-3.2301 1.12-6.7201 1.06-10.08 1.21-14.01 0.12-28.02-0.03-42.03 0.04-4.11 0.12-8.33 0.15-12.29 1.41-1.87 1.33-0.5601 3.64 0.85 4.73 5.37 4.37 12.46 6.56 16.86 12.13 2.02 2.53 0.9501 6.45-1.74 8.06-8.6801 4.96-19.28 5.29-27.85 10.46 1.53 3.0099 4.53 5.05 5.71 8.25 1.78 5.06-4.88 9.8199-9.3199 7.48-18.16-6.79-34.04-18.79-46.88-33.19-18.12-20.4-31.12-44.98-40.17-70.61 7.16 7.39 15.63 14.47 26.12 16.13-3.61-4.27-8.73-7.18-11.42-12.22 3.51 0.95 7.12 1.93 10.19 3.98 1.62 1.17 3.19 2.4301 4.77 3.69 0.03 0.29 0.09 0.8701 0.12 1.16 11.8 3.36 23.89 5.81 36.12 6.82 17.61 1.46 34.07-6.23 50.01-12.59 20.62-8.66 41.11-18.14 63.05-23z" fill="#0093DD" stroke="#0093DD"/>
	<path d="m983.28 569.08c12.13 22.31 26.89 43.81 47.15 59.53 3.48 2.9 7.5299 5.05 10.94 8.03 2.03 2.34 2.5601 5.53 3.63 8.36 6.64 19.6 11.04 40.21 10.4 61 0.12 23.22-6.6901 46.21-18.18 66.31-15.88 27.71-39.73 49.84-65.12 68.77-32.27 23.94-67.73 43.07-103.04 62.06-31.7 16.76-63.63 33.11-94.49 51.39-30.07 18.19-59.85 38.24-82.44 65.56-11.42 13.87-20.44 30.06-24.45 47.68-4.79 19.95-2.85 41.04 3.12 60.52 6.14 20.09 16.14 38.79 27.59 56.33 19.8 30.14 44.13 56.98 69.48 82.5 27.63 27.15 56.78 52.74 86.85 77.15 16.97 14.08 34.69 27.2 51.92 40.94-4.28 1.92-9.1 0.9501-13.63 0.9301-22.5-1.51-44.88-4.53-67.19-7.79-44.93-6.5599-89.59-14.87-134.04-24.14-82.64-17.51-164.57-38.68-244.78-65.26-43.25-14.19-85.9-30.19-127.7-48.21-34.2-14.95-67.93-31.09-100.29-49.71-32.47-18.64-63.89-39.35-92.43-63.65-36.58-31.13-69.37-68.73-86.91-114.01-8.53-22.05-13.1-45.7-12.78-69.37 0.15-19.78 2.6-39.81 9.75-58.35 6.69-17.39 17.84-32.95 31.73-45.32 23.65-21.3 53.52-34.07 83.63-43.31 39.39-11.79 80.24-17.72 121.03-22.11 42.87-4.44 85.92-6.8 128.97-8.6299 10.73-1.08 21.52-0.64 32.24-1.7401 28.37-0.55 56.71-2.34 85.08-3.16 47.23-2.77 94.52-5.19 141.53-10.71 35.62-4.05 71.16-9.38 106.06-17.68 29.69-6.8 58.92-15.95 86.78-28.31 23.52-10.51 45.97-23.7 65.79-40.23 17.13-14.29 32.07-31.3 43.55-50.44 8.7602-13.97 15.06-29.32 20.25-44.93m-16.82 68.3c-15.5 26.93-38.95 48.64-65.28 64.81-38.58 23.89-82.23 38.11-126.05 48.88-67.02 15.9-135.64 23.57-204.15 29.6-97.97 8.72-196.41 12.38-293.99 25.26-40.49 5.8-81.11 12.73-119.84 26.26-18.99 6.75-37.61 15.11-54.02 26.95-14.8 10.51-27.49 24.49-34.76 41.26-5.95 13.36-7.44 28.12-8.22 42.56-0.61 19.88 2.59 40.05 10.57 58.33 6.2 14.44 15.17 27.63 26 38.99 19.82 20.72 45.23 35.82 72.48 44.5 9.3 2.6 19 5.7999 28.76 4.37 2.24-0.01 3.67-2.27 1.84-3.9301-15.6-19.23-30.68-39.19-41.27-61.7-7.6-16.05-13.28-33.56-12.7-51.5 0.07-15.5 5.89-30.69 15.19-42.97 10.78-14.05 25.35-24.72 40.66-33.36 32.59-17.89 68.52-28.46 104.42-37.43 44.24-10.56 89.13-18.17 134.09-25 103.32-15.86 207.51-26.95 309.7-49.48 46.67-10.63 93.29-23.34 136.48-44.36 27.5-13.76 54.17-31.39 72.34-56.68 14.67-20.34 22.03-45.89 20.04-70.92-4.22 8.45-7.37 17.44-12.29 25.56m64.76 0.51c-2.6599 10.1-4.6 20.41-7.97 30.33-11.31 37.33-31.02 71.99-57.01 101.04-11.49 11.85-23.03 23.74-36.11 33.86-15.79 12.99-33 24.16-50.71 34.35-31.88 18.27-65.62 33.12-100.04 45.91-37.07 14.22-74.95 26.15-112.26 39.71-26.21 9.2-52.23 19.24-76.79 32.3-10.27 5.84-20.8 11.43-29.98 18.96-10.99 8.97-21.44 18.97-28.7 31.27-4.85 8.96-8.89 18.58-10.28 28.75-3.19 18.08-0.33 36.7 5.13 54.06 12.9 45.02 35.32 87.05 64.36 123.72 37.44 46.48 85.08 84.39 137.79 112.22 6.54 2.98 12.57 6.98 19.21 9.76 18.5 8.61 37.41 16.56 57.15 21.9 8.45 2.34 17.2 5.24 26.08 3.88-0.57-2.76-3.13-4.24-5.07-5.9501-3.73-2.9099-6.83-6.49-10.39-9.5699-6.96-5.6901-12.87-12.5-19.64-18.39-11.4-10.58-22.18-21.83-33.18-32.82-26.65-28.27-52.45-57.57-74.04-89.96-10.05-15.06-19.52-30.6-26.77-47.23-9.81-21.99-17.28-45.68-17.11-69.99-0.54-19.33 4.16-38.71 13.31-55.73 7.31-14.89 18.14-27.63 29.56-39.51 22.06-21.32 47.7-38.52 74.24-53.75 66.17-37.93 138.1-65.2 202.19-106.85 16.14-10.49 31.13-22.67 45.06-35.94 10.53-11.41 20.73-23.43 27.46-37.55 8.4401-15.79 12.47-33.8 12.34-51.67-0.1801-20-5.27-39.67-13-58.03-1.4401-3.0801-2.12-6.8001-4.8301-9.0801z" fill="#00A2E2" stroke="#00A2E2"/>
	<path d="m1101.7 593.79c5.6699-1.49 11.55-0.57 17.33-0.7 5.79 0.06 11.68-0.8 17.37 0.75-11.54 0.74-23.17 0.89-34.7-0.05z" fill="#96D4F3" stroke="#96D4F3"/>
	<path d="m966.46 637.38c4.92-8.12 8.07-17.11 12.29-25.56 1.99 25.03-5.37 50.58-20.04 70.92-18.17 25.29-44.84 42.92-72.34 56.68-43.19 21.02-89.81 33.73-136.48 44.36-102.19 22.53-206.38 33.62-309.7 49.48-44.96 6.83-89.85 14.44-134.09 25-35.9 8.97-71.83 19.54-104.42 37.43-15.31 8.64-29.88 19.31-40.66 33.36-9.3 12.28-15.12 27.47-15.19 42.97-0.58 17.94 5.1 35.45 12.7 51.5 10.59 22.51 25.67 42.47 41.27 61.7 1.83 1.66 0.4 3.92-1.84 3.9301-9.76 1.4299-19.46-1.77-28.76-4.37-27.25-8.6801-52.66-23.78-72.48-44.5-10.83-11.36-19.8-24.55-26-38.99-7.98-18.28-11.18-38.45-10.57-58.33 0.78-14.44 2.27-29.2 8.22-42.56 7.27-16.77 19.96-30.75 34.76-41.26 16.41-11.84 35.03-20.2 54.02-26.95 38.73-13.53 79.35-20.46 119.84-26.26 97.58-12.88 196.02-16.54 293.99-25.26 68.51-6.03 137.13-13.7 204.15-29.6 43.82-10.77 87.47-24.99 126.05-48.88 26.33-16.17 49.78-37.88 65.28-64.81z" fill="#76C5F0" stroke="#76C5F0"/>
	<path d="m1031.2 637.89c2.7101 2.28 3.39 6 4.8301 9.08 7.73 18.36 12.82 38.03 13 58.03 0.13 17.87-3.9 35.88-12.34 51.67-6.73 14.12-16.93 26.14-27.46 37.55-13.93 13.27-28.92 25.45-45.06 35.94-64.09 41.65-136.02 68.92-202.19 106.85-26.54 15.23-52.18 32.43-74.24 53.75-11.42 11.88-22.25 24.62-29.56 39.51-9.15 17.02-13.85 36.4-13.31 55.73-0.17 24.31 7.3 48 17.11 69.99 7.25 16.63 16.72 32.17 26.77 47.23 21.59 32.39 47.39 61.69 74.04 89.96 11 10.99 21.78 22.24 33.18 32.82 6.77 5.89 12.68 12.7 19.64 18.39 3.56 3.08 6.66 6.66 10.39 9.5699 1.94 1.7101 4.5 3.1901 5.07 5.9501-8.88 1.36-17.63-1.54-26.08-3.88-19.74-5.3401-38.65-13.29-57.15-21.9-6.64-2.78-12.67-6.78-19.21-9.76-52.71-27.83-100.35-65.74-137.79-112.22-29.04-36.67-51.46-78.7-64.36-123.72-5.46-17.36-8.32-35.98-5.13-54.06 1.39-10.17 5.43-19.79 10.28-28.75 7.2599-12.3 17.71-22.3 28.7-31.27 9.1801-7.53 19.71-13.12 29.98-18.96 24.56-13.06 50.58-23.1 76.79-32.3 37.31-13.56 75.19-25.49 112.26-39.71 34.42-12.79 68.16-27.64 100.04-45.91 17.71-10.19 34.92-21.36 50.71-34.35 13.08-10.12 24.62-22.01 36.11-33.86 25.99-29.05 45.7-63.71 57.01-101.04 3.37-9.9199 5.3101-20.23 7.97-30.33z" fill="#007CC2" stroke="#007CC2"/>
</g>
</svg>
