<?xml version="1.0" encoding="UTF-8"?>
<!DOCTYPE svg  PUBLIC '-//W3C//DTD SVG 1.1//EN'  'http://www.w3.org/Graphics/SVG/1.1/DTD/svg11.dtd'>
<svg enable-background="new 0 0 1979.6263 1639.8857" version="1.1" viewBox="0 0 1979.6263 1639.8857" xml:space="preserve" xmlns="http://www.w3.org/2000/svg">
	<path d="m835.83 20.185c22.164 7.6774 45.365 11.999 68.784 13.399 25.037 1.9558 50.315 0.5553 75.255 4.032 26.171 3.887 49.735 17.721 69.726 34.573 32.183 25.326 44.013 69.75 38.581 109.13-2.2694 12.917-6.5427 28.151-19.242 34.428-11.444 5.0942-23.057-3.8632-27.717-13.931-10.526-18.784-3.1145-42.13-14.245-60.624-3.3317-6.06-9.3434-9.8265-15.645-12.072 2.2693 10.357 5.3356 21.536 0.8691 31.772-3.4526 8.8124-13.448 14.003-22.646 12.506-10.961-1.3038-18.397-10.84-22.888-20.112-7.5327-14.268-8.4985-30.855-15.621-45.269-8.3779-18.325-21.922-36.336-42.082-42.251-26.702-10.285-55.988-21.318-73.13-45.582z"/>
	<path d="m736.94 68.592c6.1566-17.142 13.255-34.356 24.819-48.649 28.055 41.406 76.679 61.324 122.89 74.917 28.851 29.624 48.89 68.688 52.415 110.21 2.8971 28.948-1.8349 57.968-8.619 86.071-57.703-7.4846-113.38 22.188-153.62 61.396-33.125-34.211-51.281-80.639-56.327-127.52-5.5527-52.633 1.1108-106.45 18.446-156.42z"/>
	<path d="m857.88 351.41c22.067-9.7298 45.752-18.108 70.233-16.924 0.0722 20.594 0.2172 41.189-0.0725 61.807-26.872 7.8949-51.498 21.922-74.313 37.929-11.951 8.8362-24.626 17.311-33.777 29.238-3.0904 3.7904-6.0358 7.8466-10.237 10.526-4.3459-24.578-8.7399-49.156-12.965-73.758 17.069-19.846 37.132-37.832 61.131-48.818z"/>
	<path d="m1247.6 357.27c66.37-15.621 135.08-23.178 203.21-17.89 94.086 7.4119 185.37 40.223 264.8 90.755 54.733 34.356 104.3 77.621 142.47 129.99 69.34 93.797 102.01 212.44 96.96 328.49-2.4626 47.031-10.285 94.449-29.045 137.93-11.251 26.702-29.696 49.759-50.653 69.509-26.558 24.843-60.19 42.637-96.356 47.924-51.667 7.9672-104.76-7.3156-148.41-34.935-20.136-12.482-36.65-29.89-57.026-42.01-34.815-22.308-77.017-33.776-118.33-28.658-37.374 4.0559-72.623 18.856-105.26 36.915-35.539 20.015-65.114 51.981-79.045 90.634-7.4606 20.715-10.092 44.4-1.3038 65.139 6.4464 15.79 20.256 27.813 36.094 33.752 19.798 7.8224 41.551 7.5569 62.459 5.9153 27.886 0 56.326 12.289 73.927 34.259 13.713 17.311 16.659 41.092 11.299 62.145-10.358 41.358-39.692 73.879-67.094 105.12-14.8-11.927-27.089-26.509-40.899-39.474-99.278-98.601-198.8-197.01-296.72-296.91-13.134-105.43-24.168-211.28-36.529-316.86-13.11-115.26-26.171-230.52-39.33-345.76 85.154-51.908 177.6-92.783 274.78-115.98m-16.49 92.058c-12.917 4.394-22.695 14.558-30.783 25.157-5.8911 7.7019-15.307 12.941-25.133 12.627-14.003-0.2172-26.365-7.4602-38.943-12.603-16.876-6.8083-38.074 3.4284-42.903 21.029-3.6458 11.758 1.183 23.757 6.5669 34.139 3.839 8.1121 9.6093 18.18 4.0803 26.896-5.8669 7.0499-13.182 13.11-17.19 21.584-6.0599 10.382-6.6877 25.254 2.9454 33.776 11.13 9.2227 26.896 13.206 34.791 26.147 3.3076 5.915-1.9799 11.685-3.4043 17.383-5.5769 20.232 5.3597 43.82 24.65 52.367 14.655 6.6636 31.652 4.7078 46.476-0.4827 10.285-3.6215 20.401-10.116 24.988-20.426 5.9875-12.337 3.0419-26.558 6.4703-39.45 1.5693-6.4948 7.4121-11.106 13.931-11.927 21.174-3.4765 43.917-5.4803 62.048-18.131 11.348-7.6777 17.432-21.802 15.911-35.322-1.328-12.289-4.4906-26.002-15.138-33.608-9.271-7.3155-21.898-7.7499-31.386-14.462-6.8807-6.5189-2.0763-16.586 1.3036-23.636 7.9432-14.848 7.0258-33.897-2.4866-47.779-7.6051-11.855-23.274-18.446-36.794-13.279m265.43 0.0239c-11.637 3.9354-21.922 13.907-23.25 26.534-1.2555 9.464 6.7119 17.214 5.6979 26.702 0.0483 8.9329-8.4502 14.534-16.273 16.418-11.854 2.7524-22.767 11.106-26.05 23.202-5.215 16.852 5.77 35.249 21.512 41.792 13.786 5.8911 29.769 11.106 38.05 24.651 3.694 6.0358 1.0624 13.448-3.9838 17.77-15.597 15.765-22.236 40.826-13.11 61.566 8.8124 20.111 26.558 37.253 48.238 42.492 29.093 7.2188 61.276-10.502 72.092-38.171 4.2733-11.613 8.3534-24.071 17.89-32.545 8.3293-7.6291 20.16-9.2227 31.024-9.0779 24.264 0.7003 47.973-11.058 63.811-29.117 10.454-11.999 17.649-28.586 13.496-44.593-4.0079-16.393-17.673-28.151-31.797-36.094-13.134-7.3878-28.682-6.5911-43.192-6.567-5.3839-0.338-12.41 0.1931-15.307-5.3356-1.835-7.8949 2.511-15.235 5.2875-22.308 5.4081-12.796 6.1322-28.658-1.666-40.633-4.7079-7.243-13.617-10.937-22.067-9.9954-13.086 1.1588-24.602 8.233-35.201 15.476-10.768 7.3155-25.544 8.0396-36.94 1.7866-8.619-4.0801-14.414-11.83-20.715-18.59-6.9533-7.3397-18.373-8.7158-27.548-5.3601m217.53 287.5c-12.554 3.4282-19.387 16.562-20.522 28.755-2.2693 14.896 4.2251 31.459-4.5389 45.075-3.8628 6.8085-12.289 6.9049-19.073 7.7982-13.231 1.7144-25.447 11.299-28.851 24.433-5.3597 18.011 5.2634 38.026 21.777 46.017 17.19 7.0016 34.356 22.767 32.159 42.927-3.5249 16.948 3.3318 34.839 15.669 46.596 14.196 13.979 36.698 17.576 55.192 11.082 21.198-8.8365 30.155-33.68 29.793-55.192 0.3622-9.4157-6.8807-16.876-6.8566-26.196-0.7003-9.2951 2.9213-19.942 11.782-24.216 9.0537-4.732 19.484-1.4969 29.189-2.9454 13.665-1.5935 25.978-10.188 33.076-21.874 11.01-18.349 10.72-44.255-4.0559-60.479-9.1504-10.333-23.395-14.1-36.698-14.293-14.92-0.7966-31.169 2.2697-44.689-5.6736-11.106-6.1322-14.1-19.508-22.84-27.91-10.261-10.575-25.688-17.914-40.513-13.906m-407.06 115.16c-30.227 6.9533-59.272 21.319-81.339 43.313-18.204 19.556-34.114 41.43-46.066 65.38-16.972 33.994-25.157 73.492-17.214 111.11 4.8046 19.604 17.456 39.209 37.422 45.776 9.2712 3.5251 21.608 0.845 25.93-8.8605 16.876-31.604 38.581-61.397 67.577-82.908 29.648-22.405 65.477-34.718 101.43-42.637 17.311-3.2113 32.714-15.235 39.861-31.386 7.8707-17.021 6.0599-37.591-3.1143-53.743-9.9955-17.89-26.847-31.145-45.197-39.716-24.674-11.347-53.091-12.12-79.286-6.3255z"/>
	<path d="m295.17 494.07c48.818-44.617 115.41-66.708 181.05-66.129 4.2976 71.947 14.269 145.17 45.027 211.11-28.224 28.368-42.686 66.515-58.21 102.58-6.4464 15.693-12.12 31.676-17.045 47.924-47.393-14.486-95.366-28.465-144.84-33.366-32.135-3.4526-64.704-2.4144-96.549 3.1626-15.862-95.921 18.18-199.76 90.562-265.29z"/>
	<path d="m823.23 531.64c17.262-45.39 58.765-79.021 104.98-92.059 26.268 232.14 52.488 464.28 78.708 696.44 0.9655 5.2151-0.1933 11.782 4.5629 15.524 102.73 104.9 205.17 210.1 308.09 314.83 20.353 20.715 42.251 41.068 55.24 67.505 6.8811 13.641 10.237 29.938 5.36 44.81-5.3839 15.307-17.432 27.693-31.41 35.539-15.162 8.4019-33.922 6.8566-49.253-0.1692-25.906-11.71-46.186-32.256-65.79-52.222-67.022-66.684-133.87-133.46-201.02-200 5.0458 50.749 11.613 101.33 16.804 152.08 1.4489 23.274 2.1246 47.345-5.1425 69.847-4.0077 12.723-12.699 24.554-25.302 29.769-16.659 6.712-37.132 5.4323-51.57-5.7461-13.882-10.623-21.922-26.872-27.523-42.999-10.502-30.3-12.144-62.579-15.814-94.159-8.6193-80.928-17.625-161.83-26.002-242.79-110.65-111.16-222.22-221.47-332.07-333.42 13.593-47.611 30.71-95.342 60.503-135.42 82.908 84.019 165.53 168.35 248.12 252.71-17.07-160.02-34.815-320.02-51.474-480.07z"/>
	<path d="m42.676 753.08c25.278-56.713 68.157-103.7 115.57-142.88-11.275 28.489-13.714 59.513-15.79 89.813-2.1488 50.628-0.0242 102.8 17.552 150.85 6.8808 20.474 21.825 36.553 31.797 55.409 7.9191 14.776 14.896 30.711 15.742 47.707 0.5794 10.744-2.9937 22.767-12.506 28.851-7.9916 5.3356-18.325 3.4282-26.703 0.2172-16.828-6.6394-28.924-22.14-33.921-39.185-4.3217-13.11-4.3217-27.017-4.3217-40.633-0.7003-18.156-4.2734-36.65-13.279-52.608-2.8249-5.2392-6.9775-9.609-11.975-12.748-7.1225 18.035-0.4589 37.229 0.9175 55.675 0.7 9.2709 1.5932 20.715-6.1325 27.499-10.333 7.0016-24.119 4.1529-34.356-1.5691-18.615-10.623-30.3-30.203-36.263-50.267-11.058-38.678-2.2458-80.132 13.665-116.13z"/>
	<path d="m763.86 638.83c4.2009-4.9736 8.0396-10.478 13.593-14.052 10.092 85.081 20.135 170.16 30.01 255.27-34.622-34.814-69.219-69.629-103.94-104.35-5.2393-5.7461-11.782-10.575-15.959-17.118 22.212-41.792 46.283-82.98 76.293-119.75z"/>
	<path d="m504.13 748.73c9.464-25.616 29.068-45.245 47.2-64.897 15.041 15.138 30.445 29.914 45.341 45.221-30.252 40.03-44.882 88.823-60.286 135.88-15.331-15.041-30.372-30.324-45.558-45.462 0.9175-24.047 5.2389-48.07 13.303-70.74z"/>
	<path d="m608.79 998.91c81.435 80.204 163.4 159.93 244.57 240.4 5.6978 42.13 9.0779 84.719 13.955 127.04 5.7703 53.984 11.42 107.99 17.238 161.98-71.754-29.141-136.27-74.675-190.59-129.6-55.747-57.799-84.936-136.72-93.217-215.62-6.76-61.348-2.7041-123.54 8.0399-184.19m142.52 239c-11.758 2.6558-17.166 16.321-29.672 17.383-11.903 4.3698-22.236-7.895-33.97-3.7183-12.627 4.2976-17.6 22.116-9.4398 32.521 6.6394 9.1985 21.439 3.4281 27.741 13.158 7.1222 14.317-10.671 25.882-7.6052 40.247 3.1868 16.224 22.115 27.982 37.977 22.284 7.0016-2.3661 11.42-9.7299 19.025-10.623 7.1705 2.1971 13.52 7.2672 21.318 7.4119 15.621 0.9658 28.006-17.118 22.357-31.483-2.4143-7.3881-11.878-10.358-12.313-18.687-0.6519-12.724 10.285-23.395 7.6536-36.408-3.7184-18.928-22.55-37.832-43.072-32.086z"/>
	<path d="m1094.1 1481.7c24.12 23.395 48.166 46.838 72.189 70.305 3.4526 2.2451 0 5.0217-2.4626 5.8666-21.149 11.782-45.848 15.331-69.75 13.738 0.1447-29.962 0.0722-59.948 0.0238-89.91z"/>
</svg>
