<svg xmlns="http://www.w3.org/2000/svg" viewBox="0 0 69 47" width="69" height="47">
	<style>
		tspan { white-space:pre }
		.shp0 { fill: none;stroke: #394553;stroke-linejoin:round;stroke-width: 2.5 } 
		.shp1 { fill: none;stroke: #394553;stroke-linecap:round;stroke-linejoin:round;stroke-width: 2.5 } 
	</style>
	<g id="Layer">
		<g id="Layer">
			<g id="Layer">
				<g id="Layer">
					<path id="Layer" class="shp0" d="M50.34 40.52L37.32 45.37L41.09 31.78L57.21 13.5C58.1 12.5 59.97 12.68 61.36 13.9L65.84 17.85C67.23 19.08 67.64 20.91 66.75 21.92L50.34 40.52Z" />
					<path id="Layer" class="shp0" d="M50.15 38.93L42.26 31.96" />
					<path id="Layer" class="shp0" d="M41.28 43.69L38.72 41.37" />
				</g>
				<path id="Layer" class="shp0" d="M46.47 35.53L55.6 25.19" />
			</g>
			<path id="Layer" class="shp0" d="M53.96 17.61L63.08 25.66" />
		</g>
		<path id="Layer" class="shp1" d="M33.12 38.49L4.55 38.49C3.03 38.49 1.78 37.24 1.78 35.71L1.78 4.41C1.78 2.88 3.03 1.63 4.55 1.63L49.75 1.63C51.27 1.63 52.52 2.88 52.52 4.41L52.52 10.51" />
		<path id="Layer" class="shp1" d="M14.84 23.39L3.38 37.11" />
		<path id="Layer" class="shp1" d="M2.77 2.63L27.23 21.51L51.48 2.47" />
	</g>
</svg>